<svg width="145" height="43" viewBox="0 0 145 43" fill="none" xmlns="http://www.w3.org/2000/svg">
<path d="M1 6.59375C1 3.55618 3.46243 1.09375 6.5 1.09375H138.5C141.538 1.09375 144 3.55618 144 6.59375V36.5938C144 39.6313 141.538 42.0938 138.5 42.0938H6.5C3.46244 42.0938 1 39.6313 1 36.5938V6.59375Z" fill="black"/>
<path d="M1 6.59375C1 3.55618 3.46243 1.09375 6.5 1.09375H138.5C141.538 1.09375 144 3.55618 144 6.59375V36.5938C144 39.6313 141.538 42.0938 138.5 42.0938H6.5C3.46244 42.0938 1 39.6313 1 36.5938V6.59375Z" stroke="white"/>
<path d="M48.4688 16.3438H46.3366V9.43466H48.5632C49.2334 9.43466 49.8069 9.57298 50.2837 9.84961C50.7605 10.124 51.126 10.5187 51.3801 11.0337C51.6343 11.5465 51.7614 12.1605 51.7614 12.8757C51.7614 13.5954 51.6332 14.215 51.3768 14.7346C51.1204 15.2518 50.747 15.6499 50.2567 15.9288C49.7665 16.2054 49.1705 16.3438 48.4688 16.3438ZM47.1733 15.6016H48.4148C48.986 15.6016 49.4595 15.4914 49.835 15.271C50.2106 15.0505 50.4906 14.7368 50.6751 14.3297C50.8595 13.9226 50.9517 13.438 50.9517 12.8757C50.9517 12.3179 50.8606 11.8378 50.6784 11.4352C50.4963 11.0304 50.2241 10.72 49.862 10.5041C49.4999 10.2859 49.049 10.1768 48.5092 10.1768H47.1733V15.6016ZM55.1619 16.4517C54.6941 16.4517 54.2837 16.3404 53.9306 16.1177C53.5797 15.8951 53.3053 15.5836 53.1074 15.1832C52.9118 14.7829 52.8139 14.3151 52.8139 13.7798C52.8139 13.2401 52.9118 12.7689 53.1074 12.3663C53.3053 11.9637 53.5797 11.6511 53.9306 11.4284C54.2837 11.2058 54.6941 11.0945 55.1619 11.0945C55.6297 11.0945 56.0391 11.2058 56.3899 11.4284C56.743 11.6511 57.0174 11.9637 57.2131 12.3663C57.411 12.7689 57.5099 13.2401 57.5099 13.7798C57.5099 14.3151 57.411 14.7829 57.2131 15.1832C57.0174 15.5836 56.743 15.8951 56.3899 16.1177C56.0391 16.3404 55.6297 16.4517 55.1619 16.4517ZM55.1619 15.7365C55.5173 15.7365 55.8097 15.6454 56.0391 15.4632C56.2685 15.2811 56.4383 15.0415 56.5485 14.7447C56.6587 14.4478 56.7138 14.1262 56.7138 13.7798C56.7138 13.4335 56.6587 13.1107 56.5485 12.8116C56.4383 12.5125 56.2685 12.2707 56.0391 12.0863C55.8097 11.9019 55.5173 11.8097 55.1619 11.8097C54.8066 11.8097 54.5142 11.9019 54.2848 12.0863C54.0554 12.2707 53.8856 12.5125 53.7754 12.8116C53.6652 13.1107 53.6101 13.4335 53.6101 13.7798C53.6101 14.1262 53.6652 14.4478 53.7754 14.7447C53.8856 15.0415 54.0554 15.2811 54.2848 15.4632C54.5142 15.6454 54.8066 15.7365 55.1619 15.7365ZM59.723 16.3438L58.1442 11.1619H58.9808L60.1009 15.1293H60.1548L61.2614 11.1619H62.1115L63.2045 15.1158H63.2585L64.3786 11.1619H65.2152L63.6364 16.3438H62.8537L61.7202 12.3629H61.6392L60.5057 16.3438H59.723ZM67.0639 13.2266V16.3438H66.2678V11.1619H67.0369V11.9716H67.1044C67.2259 11.7085 67.4103 11.497 67.6577 11.3374C67.9051 11.1754 68.2244 11.0945 68.6158 11.0945C68.9666 11.0945 69.2736 11.1664 69.5368 11.3104C69.7999 11.4521 70.0046 11.668 70.1507 11.9581C70.2969 12.246 70.37 12.6103 70.37 13.0511V16.3438H69.5739V13.1051C69.5739 12.698 69.4682 12.3809 69.2567 12.1538C69.0453 11.9244 68.7552 11.8097 68.3864 11.8097C68.1322 11.8097 67.9051 11.8648 67.7049 11.975C67.507 12.0852 67.3507 12.246 67.236 12.4574C67.1213 12.6688 67.0639 12.9252 67.0639 13.2266ZM72.621 9.43466V16.3438H71.8249V9.43466H72.621ZM76.1844 16.4517C75.7166 16.4517 75.3061 16.3404 74.953 16.1177C74.6022 15.8951 74.3278 15.5836 74.1299 15.1832C73.9342 14.7829 73.8364 14.3151 73.8364 13.7798C73.8364 13.2401 73.9342 12.7689 74.1299 12.3663C74.3278 11.9637 74.6022 11.6511 74.953 11.4284C75.3061 11.2058 75.7166 11.0945 76.1844 11.0945C76.6522 11.0945 77.0615 11.2058 77.4124 11.4284C77.7655 11.6511 78.0399 11.9637 78.2355 12.3663C78.4334 12.7689 78.5324 13.2401 78.5324 13.7798C78.5324 14.3151 78.4334 14.7829 78.2355 15.1832C78.0399 15.5836 77.7655 15.8951 77.4124 16.1177C77.0615 16.3404 76.6522 16.4517 76.1844 16.4517ZM76.1844 15.7365C76.5397 15.7365 76.8321 15.6454 77.0615 15.4632C77.2909 15.2811 77.4607 15.0415 77.5709 14.7447C77.6811 14.4478 77.7362 14.1262 77.7362 13.7798C77.7362 13.4335 77.6811 13.1107 77.5709 12.8116C77.4607 12.5125 77.2909 12.2707 77.0615 12.0863C76.8321 11.9019 76.5397 11.8097 76.1844 11.8097C75.829 11.8097 75.5367 11.9019 75.3073 12.0863C75.0779 12.2707 74.9081 12.5125 74.7979 12.8116C74.6876 13.1107 74.6325 13.4335 74.6325 13.7798C74.6325 14.1262 74.6876 14.4478 74.7979 14.7447C74.9081 15.0415 75.0779 15.2811 75.3073 15.4632C75.5367 15.6454 75.829 15.7365 76.1844 15.7365ZM81.2726 16.4652C80.9442 16.4652 80.6462 16.4033 80.3786 16.2797C80.111 16.1537 79.8984 15.9727 79.741 15.7365C79.5836 15.4981 79.5048 15.2102 79.5048 14.8729C79.5048 14.576 79.5633 14.3353 79.6803 14.1509C79.7972 13.9643 79.9535 13.8181 80.1492 13.7124C80.3449 13.6067 80.5608 13.5279 80.7969 13.4762C81.0353 13.4222 81.2748 13.3795 81.5155 13.348C81.8304 13.3075 82.0856 13.2772 82.2813 13.2569C82.4792 13.2344 82.6232 13.1973 82.7131 13.1456C82.8053 13.0939 82.8514 13.0039 82.8514 12.8757V12.8487C82.8514 12.5159 82.7603 12.2572 82.5782 12.0728C82.3982 11.8884 82.125 11.7962 81.7584 11.7962C81.3783 11.7962 81.0803 11.8794 80.8644 12.0458C80.6485 12.2122 80.4967 12.3899 80.409 12.5788L79.6533 12.3089C79.7882 11.9941 79.9681 11.7489 80.193 11.5735C80.4202 11.3958 80.6676 11.2721 80.9352 11.2024C81.2051 11.1304 81.4705 11.0945 81.7314 11.0945C81.8978 11.0945 82.089 11.1147 82.3049 11.1552C82.5231 11.1934 82.7334 11.2733 82.9358 11.3947C83.1404 11.5162 83.3102 11.6995 83.4452 11.9446C83.5801 12.1897 83.6476 12.5181 83.6476 12.9297V16.3438H82.8514V15.642H82.8109C82.757 15.7545 82.667 15.8748 82.5411 16.003C82.4151 16.1312 82.2476 16.2403 82.0384 16.3303C81.8292 16.4202 81.574 16.4652 81.2726 16.4652ZM81.394 15.75C81.7089 15.75 81.9743 15.6882 82.1902 15.5645C82.4084 15.4408 82.5725 15.2811 82.6828 15.0854C82.7952 14.8897 82.8514 14.6839 82.8514 14.468V13.7393C82.8177 13.7798 82.7435 13.8169 82.6288 13.8507C82.5163 13.8822 82.3859 13.9103 82.2374 13.935C82.0912 13.9575 81.9484 13.9777 81.809 13.9957C81.6718 14.0115 81.5605 14.025 81.475 14.0362C81.2681 14.0632 81.0747 14.1071 80.8948 14.1678C80.7171 14.2263 80.5731 14.3151 80.4629 14.4343C80.355 14.5513 80.301 14.7109 80.301 14.9134C80.301 15.19 80.4033 15.3991 80.608 15.5408C80.8149 15.6803 81.0769 15.75 81.394 15.75ZM87.0574 16.4517C86.6256 16.4517 86.2444 16.3426 85.9138 16.1245C85.5832 15.9041 85.3245 15.5937 85.1379 15.1934C84.9512 14.7908 84.8579 14.3151 84.8579 13.7663C84.8579 13.2221 84.9512 12.7498 85.1379 12.3494C85.3245 11.9491 85.5843 11.6399 85.9172 11.4217C86.25 11.2035 86.6346 11.0945 87.0709 11.0945C87.4083 11.0945 87.6748 11.1507 87.8705 11.2631C88.0684 11.3733 88.2191 11.4993 88.3225 11.641C88.4282 11.7804 88.5103 11.8951 88.5688 11.9851H88.6363V9.43466H89.4324V16.3438H88.6633V15.5476H88.5688C88.5103 15.642 88.4271 15.7612 88.3192 15.9052C88.2112 16.0469 88.0571 16.1739 87.857 16.2864C87.6568 16.3966 87.3903 16.4517 87.0574 16.4517ZM87.1654 15.7365C87.4848 15.7365 87.7546 15.6533 87.9751 15.4869C88.1955 15.3182 88.363 15.0854 88.4777 14.7885C88.5924 14.4894 88.6498 14.1442 88.6498 13.7528C88.6498 13.366 88.5935 13.0275 88.4811 12.7374C88.3686 12.445 88.2022 12.2179 87.9818 12.0559C87.7614 11.8917 87.4893 11.8097 87.1654 11.8097C86.828 11.8097 86.5469 11.8962 86.322 12.0694C86.0993 12.2404 85.9318 12.4731 85.8193 12.7678C85.7091 13.0601 85.654 13.3885 85.654 13.7528C85.654 14.1217 85.7103 14.4568 85.8227 14.7582C85.9374 15.0573 86.1061 15.2957 86.3287 15.4734C86.5537 15.6488 86.8325 15.7365 87.1654 15.7365ZM95.7781 16.4517C95.3103 16.4517 94.8999 16.3404 94.5468 16.1177C94.1959 15.8951 93.9215 15.5836 93.7236 15.1832C93.528 14.7829 93.4301 14.3151 93.4301 13.7798C93.4301 13.2401 93.528 12.7689 93.7236 12.3663C93.9215 11.9637 94.1959 11.6511 94.5468 11.4284C94.8999 11.2058 95.3103 11.0945 95.7781 11.0945C96.2459 11.0945 96.6553 11.2058 97.0061 11.4284C97.3592 11.6511 97.6336 11.9637 97.8293 12.3663C98.0272 12.7689 98.1262 13.2401 98.1262 13.7798C98.1262 14.3151 98.0272 14.7829 97.8293 15.1832C97.6336 15.5836 97.3592 15.8951 97.0061 16.1177C96.6553 16.3404 96.2459 16.4517 95.7781 16.4517ZM95.7781 15.7365C96.1335 15.7365 96.4259 15.6454 96.6553 15.4632C96.8847 15.2811 97.0545 15.0415 97.1647 14.7447C97.2749 14.4478 97.33 14.1262 97.33 13.7798C97.33 13.4335 97.2749 13.1107 97.1647 12.8116C97.0545 12.5125 96.8847 12.2707 96.6553 12.0863C96.4259 11.9019 96.1335 11.8097 95.7781 11.8097C95.4228 11.8097 95.1304 11.9019 94.901 12.0863C94.6716 12.2707 94.5018 12.5125 94.3916 12.8116C94.2814 13.1107 94.2263 13.4335 94.2263 13.7798C94.2263 14.1262 94.2814 14.4478 94.3916 14.7447C94.5018 15.0415 94.6716 15.2811 94.901 15.4632C95.1304 15.6454 95.4228 15.7365 95.7781 15.7365ZM100.138 13.2266V16.3438H99.3415V11.1619H100.111V11.9716H100.178C100.3 11.7085 100.484 11.497 100.731 11.3374C100.979 11.1754 101.298 11.0945 101.689 11.0945C102.04 11.0945 102.347 11.1664 102.61 11.3104C102.874 11.4521 103.078 11.668 103.224 11.9581C103.371 12.246 103.444 12.6103 103.444 13.0511V16.3438H102.648V13.1051C102.648 12.698 102.542 12.3809 102.33 12.1538C102.119 11.9244 101.829 11.8097 101.46 11.8097C101.206 11.8097 100.979 11.8648 100.779 11.975C100.581 12.0852 100.424 12.246 100.31 12.4574C100.195 12.6688 100.138 12.9252 100.138 13.2266ZM109.824 11.1619V11.8366H107.139V11.1619H109.824ZM107.921 9.92045H108.718V14.8594C108.718 15.0843 108.75 15.253 108.815 15.3654C108.883 15.4756 108.968 15.5498 109.072 15.5881C109.177 15.6241 109.289 15.642 109.406 15.642C109.493 15.642 109.565 15.6375 109.622 15.6286C109.678 15.6173 109.723 15.6083 109.757 15.6016L109.919 16.3168C109.865 16.337 109.789 16.3572 109.692 16.3775C109.596 16.4 109.473 16.4112 109.325 16.4112C109.1 16.4112 108.879 16.3629 108.664 16.2662C108.45 16.1694 108.272 16.0221 108.131 15.8242C107.991 15.6263 107.921 15.3767 107.921 15.0753V9.92045ZM111.929 13.2266V16.3438H111.133V9.43466H111.929V11.9716H111.997C112.118 11.704 112.3 11.4914 112.543 11.334C112.788 11.1743 113.114 11.0945 113.521 11.0945C113.875 11.0945 114.184 11.1653 114.449 11.307C114.715 11.4464 114.92 11.6612 115.067 11.9513C115.215 12.2392 115.289 12.6058 115.289 13.0511V16.3438H114.493V13.1051C114.493 12.6935 114.386 12.3753 114.173 12.1504C113.961 11.9232 113.668 11.8097 113.292 11.8097C113.031 11.8097 112.797 11.8648 112.59 11.975C112.386 12.0852 112.224 12.246 112.105 12.4574C111.988 12.6688 111.929 12.9252 111.929 13.2266ZM118.918 16.4517C118.419 16.4517 117.988 16.3415 117.626 16.1211C117.266 15.8984 116.989 15.5881 116.793 15.19C116.6 14.7897 116.503 14.3241 116.503 13.7933C116.503 13.2625 116.6 12.7947 116.793 12.3899C116.989 11.9828 117.261 11.6657 117.609 11.4386C117.96 11.2092 118.37 11.0945 118.837 11.0945C119.107 11.0945 119.374 11.1394 119.637 11.2294C119.9 11.3194 120.14 11.4656 120.356 11.668C120.571 11.8681 120.743 12.1335 120.872 12.4641C121 12.7947 121.064 13.2018 121.064 13.6854V14.0227H117.07V13.3345H120.254C120.254 13.0421 120.196 12.7812 120.079 12.5518C119.964 12.3224 119.8 12.1414 119.586 12.0087C119.375 11.876 119.125 11.8097 118.837 11.8097C118.52 11.8097 118.246 11.8884 118.014 12.0458C117.785 12.201 117.608 12.4034 117.485 12.6531C117.361 12.9027 117.299 13.1703 117.299 13.456V13.9148C117.299 14.3061 117.367 14.6378 117.501 14.91C117.639 15.1799 117.829 15.3857 118.072 15.5273C118.314 15.6668 118.597 15.7365 118.918 15.7365C119.128 15.7365 119.316 15.7073 119.485 15.6488C119.656 15.5881 119.803 15.4981 119.927 15.3789C120.051 15.2575 120.146 15.1068 120.214 14.9268L120.983 15.1428C120.902 15.4036 120.766 15.633 120.575 15.831C120.384 16.0266 120.147 16.1796 119.866 16.2898C119.585 16.3977 119.269 16.4517 118.918 16.4517Z" fill="white"/>
<path d="M47.5211 31.5938H45.8555L49.598 21.1937H51.4109L55.1535 31.5938H53.4879L50.5477 23.0828H50.4664L47.5211 31.5938ZM47.8004 27.5211H53.2035V28.8414H47.8004V27.5211ZM56.5335 34.5188V23.7937H58.0163V25.0582H58.1433C58.2313 24.8957 58.3582 24.7078 58.5241 24.4945C58.69 24.2812 58.9202 24.0951 59.2147 23.9359C59.5093 23.7734 59.8986 23.6922 60.3827 23.6922C61.0124 23.6922 61.5744 23.8513 62.0687 24.1695C62.5629 24.4878 62.9506 24.9465 63.2315 25.5457C63.5159 26.1449 63.6581 26.866 63.6581 27.709C63.6581 28.552 63.5176 29.2747 63.2366 29.8773C62.9556 30.4766 62.5697 30.9387 62.0788 31.2637C61.5879 31.5853 61.0276 31.7461 60.398 31.7461C59.924 31.7461 59.5364 31.6665 59.2351 31.5074C58.9371 31.3483 58.7035 31.1621 58.5343 30.9488C58.365 30.7355 58.2347 30.546 58.1433 30.3801H58.0519V34.5188H56.5335ZM58.0214 27.6937C58.0214 28.2422 58.1009 28.7229 58.2601 29.1359C58.4192 29.549 58.6494 29.8723 58.9507 30.1059C59.252 30.3361 59.621 30.4512 60.0577 30.4512C60.5114 30.4512 60.8905 30.331 61.1952 30.0906C61.4999 29.8469 61.7301 29.5168 61.8858 29.1004C62.045 28.684 62.1245 28.2151 62.1245 27.6937C62.1245 27.1792 62.0466 26.7171 61.8909 26.3074C61.7386 25.8978 61.5084 25.5745 61.2003 25.3375C60.8956 25.1005 60.5147 24.982 60.0577 24.982C59.6176 24.982 59.2452 25.0954 58.9405 25.3223C58.6392 25.5491 58.4107 25.8656 58.255 26.2719C58.0993 26.6781 58.0214 27.1521 58.0214 27.6937ZM65.3593 34.5188V23.7937H66.8421V25.0582H66.969C67.0571 24.8957 67.184 24.7078 67.3499 24.4945C67.5158 24.2812 67.746 24.0951 68.0405 23.9359C68.3351 23.7734 68.7244 23.6922 69.2085 23.6922C69.8382 23.6922 70.4002 23.8513 70.8944 24.1695C71.3887 24.4878 71.7763 24.9465 72.0573 25.5457C72.3417 26.1449 72.4839 26.866 72.4839 27.709C72.4839 28.552 72.3434 29.2747 72.0624 29.8773C71.7814 30.4766 71.3955 30.9387 70.9046 31.2637C70.4137 31.5853 69.8534 31.7461 69.2237 31.7461C68.7498 31.7461 68.3621 31.6665 68.0608 31.5074C67.7629 31.3483 67.5293 31.1621 67.3601 30.9488C67.1908 30.7355 67.0605 30.546 66.969 30.3801H66.8776V34.5188H65.3593ZM66.8472 27.6937C66.8472 28.2422 66.9267 28.7229 67.0858 29.1359C67.245 29.549 67.4752 29.8723 67.7765 30.1059C68.0778 30.3361 68.4468 30.4512 68.8835 30.4512C69.3371 30.4512 69.7163 30.331 70.021 30.0906C70.3257 29.8469 70.5559 29.5168 70.7116 29.1004C70.8707 28.684 70.9503 28.2151 70.9503 27.6937C70.9503 27.1792 70.8724 26.7171 70.7167 26.3074C70.5644 25.8978 70.3341 25.5745 70.0261 25.3375C69.7214 25.1005 69.3405 24.982 68.8835 24.982C68.4434 24.982 68.071 25.0954 67.7663 25.3223C67.465 25.5491 67.2365 25.8656 67.0808 26.2719C66.925 26.6781 66.8472 27.1521 66.8472 27.6937ZM83.7637 23.9258C83.7095 23.4451 83.4861 23.0727 83.0934 22.8086C82.7007 22.5411 82.2064 22.4074 81.6105 22.4074C81.184 22.4074 80.815 22.4751 80.5035 22.6105C80.1921 22.7426 79.95 22.9254 79.7773 23.159C79.6081 23.3892 79.5234 23.6516 79.5234 23.9461C79.5234 24.1932 79.581 24.4065 79.6961 24.5859C79.8146 24.7654 79.9686 24.916 80.1582 25.0379C80.3512 25.1564 80.5577 25.2562 80.7777 25.3375C80.9978 25.4154 81.2094 25.4797 81.4125 25.5305L82.4281 25.7945C82.7599 25.8758 83.1001 25.9858 83.4488 26.1246C83.7975 26.2634 84.1208 26.4462 84.4188 26.673C84.7167 26.8999 84.957 27.1809 85.1398 27.516C85.326 27.8512 85.4191 28.2523 85.4191 28.7195C85.4191 29.3086 85.2668 29.8316 84.9621 30.2887C84.6608 30.7457 84.2224 31.1062 83.6469 31.3703C83.0747 31.6344 82.3824 31.7664 81.5699 31.7664C80.7913 31.7664 80.1176 31.6428 79.5488 31.3957C78.9801 31.1486 78.5349 30.7982 78.2133 30.3445C77.8917 29.8875 77.7139 29.3458 77.6801 28.7195H79.2543C79.2848 29.0953 79.4066 29.4085 79.6199 29.659C79.8366 29.9061 80.1125 30.0906 80.4477 30.2125C80.7862 30.331 81.1569 30.3902 81.5598 30.3902C82.0033 30.3902 82.3977 30.3208 82.743 30.182C83.0917 30.0398 83.3659 29.8435 83.5656 29.593C83.7654 29.3391 83.8652 29.0428 83.8652 28.7043C83.8652 28.3962 83.7772 28.144 83.6012 27.9477C83.4285 27.7513 83.1932 27.5888 82.8953 27.4602C82.6008 27.3315 82.2673 27.2181 81.8949 27.1199L80.666 26.7848C79.8332 26.5579 79.173 26.2245 78.6855 25.7844C78.2014 25.3443 77.9594 24.762 77.9594 24.0375C77.9594 23.4383 78.1219 22.9152 78.4469 22.4684C78.7719 22.0215 79.212 21.6745 79.7672 21.4273C80.3224 21.1768 80.9487 21.0516 81.6461 21.0516C82.3503 21.0516 82.9715 21.1751 83.5098 21.4223C84.0514 21.6694 84.478 22.0096 84.7895 22.443C85.1009 22.8729 85.2634 23.3672 85.277 23.9258H83.7637ZM90.8134 23.7937V25.0125H86.5528V23.7937H90.8134ZM87.6954 21.925H89.2138V29.3035C89.2138 29.598 89.2578 29.8198 89.3458 29.9687C89.4338 30.1143 89.5472 30.2142 89.686 30.2684C89.8282 30.3191 89.9823 30.3445 90.1481 30.3445C90.27 30.3445 90.3767 30.3361 90.4681 30.3191C90.5595 30.3022 90.6306 30.2887 90.6813 30.2785L90.9556 31.5328C90.8675 31.5667 90.7423 31.6005 90.5798 31.6344C90.4173 31.6716 90.2142 31.6919 89.9704 31.6953C89.5709 31.7021 89.1985 31.631 88.8532 31.482C88.5079 31.3331 88.2286 31.1029 88.0153 30.7914C87.8021 30.4799 87.6954 30.0889 87.6954 29.6184V21.925ZM95.6947 31.7512C94.9635 31.7512 94.3253 31.5836 93.7803 31.2484C93.2352 30.9133 92.812 30.4444 92.5107 29.8418C92.2094 29.2392 92.0588 28.535 92.0588 27.7293C92.0588 26.9202 92.2094 26.2126 92.5107 25.6066C92.812 25.0007 93.2352 24.5301 93.7803 24.1949C94.3253 23.8598 94.9635 23.6922 95.6947 23.6922C96.426 23.6922 97.0641 23.8598 97.6092 24.1949C98.1542 24.5301 98.5774 25.0007 98.8787 25.6066C99.18 26.2126 99.3307 26.9202 99.3307 27.7293C99.3307 28.535 99.18 29.2392 98.8787 29.8418C98.5774 30.4444 98.1542 30.9133 97.6092 31.2484C97.0641 31.5836 96.426 31.7512 95.6947 31.7512ZM95.6998 30.4766C96.1738 30.4766 96.5665 30.3513 96.8779 30.1008C97.1894 29.8503 97.4196 29.5168 97.5686 29.1004C97.7209 28.684 97.7971 28.2253 97.7971 27.7242C97.7971 27.2266 97.7209 26.7695 97.5686 26.3531C97.4196 25.9333 97.1894 25.5965 96.8779 25.3426C96.5665 25.0887 96.1738 24.9617 95.6998 24.9617C95.2225 24.9617 94.8264 25.0887 94.5115 25.3426C94.2001 25.5965 93.9682 25.9333 93.8158 26.3531C93.6669 26.7695 93.5924 27.2266 93.5924 27.7242C93.5924 28.2253 93.6669 28.684 93.8158 29.1004C93.9682 29.5168 94.2001 29.8503 94.5115 30.1008C94.8264 30.3513 95.2225 30.4766 95.6998 30.4766ZM101.025 31.5938V23.7937H102.493V25.0328H102.574C102.717 24.613 102.967 24.2829 103.326 24.0426C103.688 23.7988 104.098 23.677 104.555 23.677C104.65 23.677 104.761 23.6803 104.89 23.6871C105.022 23.6939 105.125 23.7023 105.2 23.7125V25.1648C105.139 25.1479 105.03 25.1293 104.875 25.109C104.719 25.0853 104.563 25.0734 104.408 25.0734C104.049 25.0734 103.729 25.1496 103.448 25.302C103.17 25.4509 102.95 25.6591 102.788 25.9266C102.625 26.1906 102.544 26.4919 102.544 26.8305V31.5938H101.025ZM109.596 31.7512C108.828 31.7512 108.166 31.587 107.611 31.2586C107.059 30.9268 106.632 30.4613 106.331 29.8621C106.033 29.2595 105.884 28.5536 105.884 27.7445C105.884 26.9456 106.033 26.2414 106.331 25.632C106.632 25.0227 107.052 24.547 107.59 24.2051C108.132 23.8632 108.765 23.6922 109.489 23.6922C109.93 23.6922 110.356 23.765 110.769 23.9105C111.182 24.0561 111.553 24.2846 111.881 24.5961C112.21 24.9076 112.469 25.3121 112.658 25.8098C112.848 26.304 112.943 26.9049 112.943 27.6125V28.1508H106.742V27.0133H111.455C111.455 26.6138 111.373 26.26 111.211 25.952C111.048 25.6405 110.82 25.3951 110.525 25.2156C110.234 25.0362 109.892 24.9465 109.5 24.9465C109.073 24.9465 108.701 25.0514 108.382 25.2613C108.068 25.4678 107.824 25.7387 107.651 26.0738C107.482 26.4056 107.397 26.7661 107.397 27.1555V28.0441C107.397 28.5655 107.489 29.009 107.671 29.3746C107.858 29.7402 108.117 30.0195 108.448 30.2125C108.78 30.4021 109.168 30.4969 109.611 30.4969C109.899 30.4969 110.161 30.4562 110.398 30.375C110.635 30.2904 110.84 30.1651 111.013 29.9992C111.186 29.8333 111.318 29.6285 111.409 29.3848L112.846 29.6437C112.731 30.0669 112.524 30.4376 112.227 30.7559C111.932 31.0707 111.561 31.3161 111.114 31.4922C110.671 31.6648 110.165 31.7512 109.596 31.7512Z" fill="white"/>
<g clip-path="url(#clip0_3499_698)">
<path d="M28.1208 9.59375H28.2908C28.4278 11.2867 27.7808 12.5507 26.9967 13.4667C26.2267 14.3767 25.1708 15.2587 23.4648 15.1248C23.3507 13.4557 23.9987 12.2847 24.7827 11.3717C25.5097 10.5197 26.8427 9.76175 28.1197 9.59375H28.1208ZM33.2847 27.2108V27.2577C32.8048 28.7097 32.1217 29.9548 31.2867 31.1098C30.5247 32.1588 29.5907 33.5697 27.9237 33.5697C26.4837 33.5697 25.5257 32.6427 24.0497 32.6178C22.4877 32.5938 21.6297 33.3937 20.2007 33.5938H19.7138C18.6658 33.4417 17.8188 32.6117 17.2028 31.8638C15.3848 29.6518 13.9798 26.7968 13.7188 23.1418V22.0677C13.8287 19.4517 15.0998 17.3247 16.7888 16.2948C17.6808 15.7468 18.9067 15.2797 20.2717 15.4878C20.8568 15.5788 21.4538 15.7787 21.9778 15.9777C22.4738 16.1677 23.0948 16.5058 23.6828 16.4878C24.0818 16.4767 24.4777 16.2687 24.8787 16.1227C26.0557 15.6977 27.2087 15.2108 28.7288 15.4398C30.5538 15.7158 31.8507 16.5267 32.6517 17.7797C31.1067 18.7627 29.8848 20.2437 30.0938 22.7747C30.2787 25.0728 31.6157 26.4178 33.2847 27.2108Z" fill="white"/>
</g>
<defs>
<clipPath id="clip0_3499_698">
<rect width="24" height="24" fill="white" transform="translate(11.5 9.59375)"/>
</clipPath>
</defs>
</svg>
