<svg width="145" height="43" viewBox="0 0 145 43" fill="none" xmlns="http://www.w3.org/2000/svg">
<path d="M1 6.59375C1 3.55618 3.46243 1.09375 6.5 1.09375H138.5C141.538 1.09375 144 3.55618 144 6.59375V36.5938C144 39.6313 141.538 42.0938 138.5 42.0938H6.5C3.46244 42.0938 1 39.6313 1 36.5938V6.59375Z" fill="black"/>
<path d="M1 6.59375C1 3.55618 3.46243 1.09375 6.5 1.09375H138.5C141.538 1.09375 144 3.55618 144 6.59375V36.5938C144 39.6313 141.538 42.0938 138.5 42.0938H6.5C3.46244 42.0938 1 39.6313 1 36.5938V6.59375Z" stroke="white"/>
<path d="M51.0597 11.5938C50.9854 11.3666 50.8876 11.1631 50.7662 10.9831C50.647 10.801 50.5041 10.6458 50.3377 10.5176C50.1735 10.3894 49.9869 10.2915 49.7777 10.2241C49.5685 10.1566 49.3391 10.1229 49.0895 10.1229C48.6802 10.1229 48.3079 10.2286 47.9728 10.44C47.6377 10.6514 47.3712 10.9629 47.1733 11.3745C46.9754 11.786 46.8764 12.291 46.8764 12.8892C46.8764 13.4875 46.9765 13.9924 47.1767 14.4039C47.3768 14.8155 47.6478 15.127 47.9897 15.3384C48.3316 15.5498 48.7161 15.6555 49.1435 15.6555C49.5393 15.6555 49.8879 15.5712 50.1893 15.4025C50.4929 15.2316 50.729 14.9909 50.8977 14.6806C51.0687 14.368 51.1541 14.0002 51.1541 13.5774L51.4105 13.6314H49.3324V12.8892H51.9638V13.6314C51.9638 14.2004 51.8423 14.6952 51.5994 15.1158C51.3588 15.5363 51.0259 15.8625 50.6009 16.0941C50.178 16.3235 49.6922 16.4382 49.1435 16.4382C48.5317 16.4382 47.9942 16.2943 47.5309 16.0064C47.0698 15.7185 46.71 15.3092 46.4513 14.7784C46.195 14.2476 46.0668 13.6179 46.0668 12.8892C46.0668 12.3427 46.1399 11.8513 46.286 11.4149C46.4345 10.9764 46.6436 10.603 46.9135 10.2949C47.1834 9.9868 47.5028 9.75065 47.8716 9.58647C48.2405 9.42229 48.6464 9.3402 49.0895 9.3402C49.4538 9.3402 49.7934 9.3953 50.1083 9.5055C50.4254 9.61346 50.7077 9.76752 50.9551 9.96768C51.2047 10.1656 51.4128 10.4029 51.5792 10.6795C51.7456 10.9539 51.8603 11.2586 51.9233 11.5938H51.0597ZM53.3967 16.3438V9.43466H57.5665V10.1768H54.2334V12.5114H57.3505V13.2536H54.2334V15.6016H57.6204V16.3438H53.3967ZM58.6966 10.1768V9.43466H63.8784V10.1768H61.7058V16.3438H60.8692V10.1768H58.6966ZM68.6782 9.43466V16.3438H67.8415V9.43466H68.6782ZM69.9778 10.1768V9.43466H75.1597V10.1768H72.9871V16.3438H72.1504V10.1768H69.9778ZM84.9523 12.8892C84.9523 13.6179 84.8208 14.2476 84.5576 14.7784C84.2945 15.3092 83.9335 15.7185 83.4747 16.0064C83.0159 16.2943 82.4919 16.4382 81.9026 16.4382C81.3134 16.4382 80.7893 16.2943 80.3305 16.0064C79.8717 15.7185 79.5107 15.3092 79.2476 14.7784C78.9845 14.2476 78.8529 13.6179 78.8529 12.8892C78.8529 12.1605 78.9845 11.5308 79.2476 11C79.5107 10.4692 79.8717 10.0599 80.3305 9.77202C80.7893 9.48414 81.3134 9.3402 81.9026 9.3402C82.4919 9.3402 83.0159 9.48414 83.4747 9.77202C83.9335 10.0599 84.2945 10.4692 84.5576 11C84.8208 11.5308 84.9523 12.1605 84.9523 12.8892ZM84.1427 12.8892C84.1427 12.291 84.0426 11.786 83.8424 11.3745C83.6445 10.9629 83.3757 10.6514 83.0361 10.44C82.6988 10.2286 82.3209 10.1229 81.9026 10.1229C81.4843 10.1229 81.1053 10.2286 80.7657 10.44C80.4284 10.6514 80.1596 10.9629 79.9594 11.3745C79.7615 11.786 79.6626 12.291 79.6626 12.8892C79.6626 13.4875 79.7615 13.9924 79.9594 14.4039C80.1596 14.8155 80.4284 15.127 80.7657 15.3384C81.1053 15.5498 81.4843 15.6555 81.9026 15.6555C82.3209 15.6555 82.6988 15.5498 83.0361 15.3384C83.3757 15.127 83.6445 14.8155 83.8424 14.4039C84.0426 13.9924 84.1427 13.4875 84.1427 12.8892ZM91.8378 9.43466V16.3438H91.0281L87.2632 10.919H87.1958V16.3438H86.3591V9.43466H87.1688L90.9472 14.8729H91.0146V9.43466H91.8378Z" fill="white"/>
<path d="M53.6809 24.4793C53.5827 24.1712 53.4507 23.8953 53.2848 23.6516C53.1223 23.4044 52.9276 23.1945 52.7008 23.0219C52.474 22.8458 52.215 22.7121 51.9238 22.6207C51.6361 22.5293 51.3195 22.4836 50.9742 22.4836C50.3885 22.4836 49.8604 22.6342 49.3898 22.9355C48.9193 23.2368 48.5469 23.6786 48.2727 24.2609C48.0018 24.8398 47.8664 25.5491 47.8664 26.3887C47.8664 27.2316 48.0035 27.9443 48.2777 28.5266C48.552 29.1089 48.9277 29.5507 49.4051 29.852C49.8824 30.1533 50.4258 30.3039 51.0352 30.3039C51.6005 30.3039 52.0931 30.1888 52.5129 29.9586C52.9361 29.7284 53.2628 29.4034 53.493 28.9836C53.7266 28.5604 53.8434 28.0628 53.8434 27.4906L54.2496 27.5668H51.2738V26.2719H55.3617V27.4551C55.3617 28.3285 55.1755 29.0868 54.8031 29.7301C54.4341 30.3699 53.9229 30.8642 53.2695 31.2129C52.6195 31.5616 51.8747 31.7359 51.0352 31.7359C50.094 31.7359 49.268 31.5193 48.557 31.0859C47.8495 30.6526 47.2977 30.0382 46.9016 29.2426C46.5055 28.4436 46.3074 27.4957 46.3074 26.3988C46.3074 25.5694 46.4225 24.8246 46.6527 24.1645C46.8829 23.5043 47.2063 22.944 47.6227 22.4836C48.0424 22.0198 48.535 21.666 49.1004 21.4223C49.6691 21.1751 50.2904 21.0516 50.9641 21.0516C51.526 21.0516 52.0491 21.1345 52.5332 21.3004C53.0207 21.4663 53.454 21.7016 53.8332 22.0062C54.2158 22.3109 54.5323 22.6732 54.7828 23.093C55.0333 23.5094 55.2026 23.9715 55.2906 24.4793H53.6809ZM60.5173 31.7512C59.786 31.7512 59.1479 31.5836 58.6028 31.2484C58.0578 30.9133 57.6346 30.4444 57.3333 29.8418C57.032 29.2392 56.8813 28.535 56.8813 27.7293C56.8813 26.9202 57.032 26.2126 57.3333 25.6066C57.6346 25.0007 58.0578 24.5301 58.6028 24.1949C59.1479 23.8598 59.786 23.6922 60.5173 23.6922C61.2485 23.6922 61.8867 23.8598 62.4317 24.1949C62.9768 24.5301 63.4 25.0007 63.7013 25.6066C64.0026 26.2126 64.1532 26.9202 64.1532 27.7293C64.1532 28.535 64.0026 29.2392 63.7013 29.8418C63.4 30.4444 62.9768 30.9133 62.4317 31.2484C61.8867 31.5836 61.2485 31.7512 60.5173 31.7512ZM60.5224 30.4766C60.9963 30.4766 61.389 30.3513 61.7005 30.1008C62.0119 29.8503 62.2422 29.5168 62.3911 29.1004C62.5435 28.684 62.6196 28.2253 62.6196 27.7242C62.6196 27.2266 62.5435 26.7695 62.3911 26.3531C62.2422 25.9333 62.0119 25.5965 61.7005 25.3426C61.389 25.0887 60.9963 24.9617 60.5224 24.9617C60.045 24.9617 59.6489 25.0887 59.3341 25.3426C59.0226 25.5965 58.7907 25.9333 58.6384 26.3531C58.4894 26.7695 58.4149 27.2266 58.4149 27.7242C58.4149 28.2253 58.4894 28.684 58.6384 29.1004C58.7907 29.5168 59.0226 29.8503 59.3341 30.1008C59.6489 30.3513 60.045 30.4766 60.5224 30.4766ZM69.1336 31.7512C68.4023 31.7512 67.7642 31.5836 67.2191 31.2484C66.6741 30.9133 66.2509 30.4444 65.9496 29.8418C65.6483 29.2392 65.4977 28.535 65.4977 27.7293C65.4977 26.9202 65.6483 26.2126 65.9496 25.6066C66.2509 25.0007 66.6741 24.5301 67.2191 24.1949C67.7642 23.8598 68.4023 23.6922 69.1336 23.6922C69.8648 23.6922 70.503 23.8598 71.048 24.1949C71.5931 24.5301 72.0163 25.0007 72.3176 25.6066C72.6189 26.2126 72.7695 26.9202 72.7695 27.7293C72.7695 28.535 72.6189 29.2392 72.3176 29.8418C72.0163 30.4444 71.5931 30.9133 71.048 31.2484C70.503 31.5836 69.8648 31.7512 69.1336 31.7512ZM69.1387 30.4766C69.6126 30.4766 70.0053 30.3513 70.3168 30.1008C70.6283 29.8503 70.8585 29.5168 71.0074 29.1004C71.1598 28.684 71.2359 28.2253 71.2359 27.7242C71.2359 27.2266 71.1598 26.7695 71.0074 26.3531C70.8585 25.9333 70.6283 25.5965 70.3168 25.3426C70.0053 25.0887 69.6126 24.9617 69.1387 24.9617C68.6613 24.9617 68.2652 25.0887 67.9504 25.3426C67.6389 25.5965 67.407 25.9333 67.2547 26.3531C67.1057 26.7695 67.0313 27.2266 67.0313 27.7242C67.0313 28.2253 67.1057 28.684 67.2547 29.1004C67.407 29.5168 67.6389 29.8503 67.9504 30.1008C68.2652 30.3513 68.6613 30.4766 69.1387 30.4766ZM77.7347 34.6813C77.1151 34.6813 76.5819 34.6 76.1351 34.4375C75.6916 34.275 75.3293 34.06 75.0483 33.7926C74.7674 33.5251 74.5575 33.2323 74.4187 32.9141L75.7237 32.3758C75.8151 32.5247 75.937 32.6822 76.0894 32.848C76.2451 33.0173 76.455 33.1612 76.719 33.2797C76.9865 33.3982 77.3301 33.4574 77.7499 33.4574C78.3254 33.4574 78.8011 33.3169 79.1769 33.0359C79.5526 32.7583 79.7405 32.3148 79.7405 31.7055V30.1719H79.644C79.5526 30.3378 79.4206 30.5223 79.248 30.7254C79.0787 30.9285 78.8451 31.1046 78.5472 31.2535C78.2493 31.4025 77.8616 31.477 77.3843 31.477C76.7681 31.477 76.2129 31.3331 75.7187 31.0453C75.2278 30.7542 74.8384 30.3259 74.5507 29.7605C74.2663 29.1918 74.1241 28.4927 74.1241 27.6633C74.1241 26.8339 74.2646 26.1229 74.5456 25.5305C74.83 24.938 75.2193 24.4844 75.7136 24.1695C76.2078 23.8513 76.7681 23.6922 77.3944 23.6922C77.8785 23.6922 78.2696 23.7734 78.5675 23.9359C78.8654 24.0951 79.0973 24.2812 79.2632 24.4945C79.4325 24.7078 79.5628 24.8957 79.6542 25.0582H79.7659V23.7937H81.2538V31.7664C81.2538 32.4367 81.0981 32.9868 80.7866 33.4168C80.4752 33.8467 80.0537 34.165 79.5222 34.3715C78.994 34.578 78.3982 34.6813 77.7347 34.6813ZM77.7194 30.2176C78.1562 30.2176 78.5252 30.116 78.8265 29.9129C79.1312 29.7064 79.3614 29.4118 79.5171 29.0293C79.6762 28.6434 79.7558 28.1812 79.7558 27.643C79.7558 27.1182 79.6779 26.6561 79.5222 26.2566C79.3664 25.8572 79.1379 25.5457 78.8366 25.3223C78.5353 25.0954 78.1629 24.982 77.7194 24.982C77.2624 24.982 76.8815 25.1005 76.5769 25.3375C76.2722 25.5711 76.042 25.8893 75.8862 26.2922C75.7339 26.6951 75.6577 27.1453 75.6577 27.643C75.6577 28.1542 75.7356 28.6027 75.8913 28.9887C76.047 29.3746 76.2772 29.6759 76.5819 29.8926C76.89 30.1092 77.2692 30.2176 77.7194 30.2176ZM84.8085 21.1937V31.5938H83.2901V21.1937H84.8085ZM90.2129 31.7512C89.4444 31.7512 88.7826 31.587 88.2273 31.2586C87.6755 30.9268 87.249 30.4613 86.9477 29.8621C86.6497 29.2595 86.5008 28.5536 86.5008 27.7445C86.5008 26.9456 86.6497 26.2414 86.9477 25.632C87.249 25.0227 87.6688 24.547 88.207 24.2051C88.7487 23.8632 89.3818 23.6922 90.1063 23.6922C90.5464 23.6922 90.9729 23.765 91.3859 23.9105C91.799 24.0561 92.1697 24.2846 92.498 24.5961C92.8264 24.9076 93.0854 25.3121 93.275 25.8098C93.4646 26.304 93.5594 26.9049 93.5594 27.6125V28.1508H87.359V27.0133H92.0715C92.0715 26.6138 91.9902 26.26 91.8277 25.952C91.6652 25.6405 91.4367 25.3951 91.1422 25.2156C90.851 25.0362 90.5091 24.9465 90.1164 24.9465C89.6898 24.9465 89.3175 25.0514 88.9992 25.2613C88.6844 25.4678 88.4406 25.7387 88.268 26.0738C88.0987 26.4056 88.0141 26.7661 88.0141 27.1555V28.0441C88.0141 28.5655 88.1055 29.009 88.2883 29.3746C88.4745 29.7402 88.7335 30.0195 89.0652 30.2125C89.397 30.4021 89.7846 30.4969 90.2281 30.4969C90.5159 30.4969 90.7783 30.4562 91.0152 30.375C91.2522 30.2904 91.457 30.1651 91.6297 29.9992C91.8023 29.8333 91.9344 29.6285 92.0258 29.3848L93.4629 29.6437C93.3478 30.0669 93.1413 30.4376 92.8434 30.7559C92.5488 31.0707 92.1781 31.3161 91.7313 31.4922C91.2878 31.6648 90.7816 31.7512 90.2129 31.7512ZM99.1504 31.5938V21.1937H102.857C103.667 21.1937 104.337 21.341 104.868 21.6355C105.4 21.9301 105.798 22.3329 106.062 22.8441C106.326 23.352 106.458 23.9241 106.458 24.5605C106.458 25.2004 106.324 25.7759 106.057 26.2871C105.793 26.7949 105.393 27.1978 104.858 27.4957C104.327 27.7902 103.658 27.9375 102.852 27.9375H100.303V26.607H102.71C103.221 26.607 103.636 26.519 103.954 26.343C104.273 26.1635 104.506 25.9198 104.655 25.6117C104.804 25.3036 104.879 24.9533 104.879 24.5605C104.879 24.1678 104.804 23.8191 104.655 23.5145C104.506 23.2098 104.271 22.9711 103.949 22.7984C103.631 22.6258 103.211 22.5395 102.69 22.5395H100.72V31.5938H99.1504ZM109.694 21.1937V31.5938H108.175V21.1937H109.694ZM114.006 31.7664C113.512 31.7664 113.065 31.675 112.666 31.4922C112.266 31.306 111.95 31.0368 111.716 30.6848C111.486 30.3327 111.371 29.901 111.371 29.3898C111.371 28.9497 111.456 28.5875 111.625 28.3031C111.794 28.0187 112.023 27.7936 112.31 27.6277C112.598 27.4618 112.92 27.3366 113.275 27.252C113.631 27.1673 113.993 27.103 114.362 27.059C114.829 27.0048 115.208 26.9608 115.499 26.927C115.791 26.8897 116.002 26.8305 116.134 26.7492C116.266 26.668 116.332 26.5359 116.332 26.3531V26.3176C116.332 25.8741 116.207 25.5305 115.956 25.2867C115.709 25.043 115.34 24.9211 114.849 24.9211C114.338 24.9211 113.935 25.0345 113.641 25.2613C113.35 25.4848 113.148 25.7336 113.037 26.0078L111.61 25.6828C111.779 25.2089 112.026 24.8263 112.351 24.5352C112.679 24.2406 113.057 24.0273 113.483 23.8953C113.91 23.7599 114.359 23.6922 114.829 23.6922C115.141 23.6922 115.471 23.7294 115.819 23.8039C116.171 23.875 116.5 24.007 116.804 24.2C117.113 24.393 117.365 24.6689 117.561 25.0277C117.757 25.3832 117.856 25.8453 117.856 26.4141V31.5938H116.373V30.5273H116.312C116.214 30.7237 116.066 30.9167 115.87 31.1062C115.674 31.2958 115.422 31.4533 115.113 31.5785C114.805 31.7038 114.436 31.7664 114.006 31.7664ZM114.337 30.5477C114.756 30.5477 115.115 30.4647 115.413 30.2988C115.714 30.1329 115.943 29.9163 116.099 29.6488C116.258 29.378 116.337 29.0885 116.337 28.7805V27.775C116.283 27.8292 116.178 27.8799 116.022 27.9273C115.87 27.9714 115.696 28.0103 115.499 28.0441C115.303 28.0746 115.112 28.1034 114.926 28.1305C114.739 28.1542 114.584 28.1745 114.458 28.1914C114.164 28.2286 113.895 28.2913 113.651 28.3793C113.411 28.4673 113.218 28.5943 113.072 28.7602C112.93 28.9227 112.859 29.1393 112.859 29.4102C112.859 29.7859 112.998 30.0703 113.275 30.2633C113.553 30.4529 113.907 30.5477 114.337 30.5477ZM120.558 34.5188C120.332 34.5188 120.125 34.5001 119.939 34.4629C119.753 34.429 119.614 34.3918 119.523 34.3512L119.888 33.107C120.166 33.1815 120.413 33.2137 120.63 33.2035C120.846 33.1934 121.038 33.1121 121.203 32.9598C121.373 32.8074 121.522 32.5586 121.65 32.2133L121.838 31.6953L118.984 23.7937H120.609L122.585 29.8469H122.666L124.641 23.7937H126.271L123.057 32.6348C122.908 33.041 122.718 33.3846 122.488 33.6656C122.258 33.95 121.984 34.1633 121.666 34.3055C121.347 34.4477 120.978 34.5188 120.558 34.5188Z" fill="white"/>
<g clip-path="url(#clip0_3499_681)">
<mask id="mask0_3499_681" style="mask-type:luminance" maskUnits="userSpaceOnUse" x="11" y="9" width="25" height="25">
<path d="M11.5 9.59375H35.5V33.5938H11.5V9.59375Z" fill="white"/>
</mask>
<g mask="url(#mask0_3499_681)">
<path d="M29.4172 17.826C26.6292 16.266 22.1552 13.764 15.2142 9.87601C15.0001 9.73289 14.756 9.6411 14.5006 9.6078C14.2453 9.5745 13.9858 9.60058 13.7422 9.68401L25.6512 21.594L29.4172 17.826Z" fill="#32BBFF"/>
<path d="M13.7456 9.68359C13.411 9.79542 13.1203 10.01 12.9149 10.2968C12.7095 10.5835 12.5998 10.9278 12.6016 11.2806V31.9036C12.5995 32.2565 12.7089 32.6011 12.9144 32.8881C13.1199 33.1751 13.4108 33.3899 13.7456 33.5016L25.6536 21.5916L13.7456 9.68359ZM25.6546 21.5926L13.7456 33.5016C13.989 33.5862 14.2489 33.6128 14.5044 33.5793C14.76 33.5458 15.0042 33.4531 15.2176 33.3086C21.9486 29.5396 26.3726 27.0656 29.1936 25.4926L29.4246 25.3626L25.6546 21.5926Z" fill="#32BBFF"/>
<path d="M12.6016 21.5928V31.9048C12.5997 32.2576 12.7093 32.6019 12.9147 32.8887C13.1201 33.1755 13.4109 33.3901 13.7456 33.5018L25.6536 21.5928H12.6016Z" fill="#2C9FD9"/>
<path d="M15.2172 9.87653C14.9642 9.70759 14.6701 9.61053 14.3663 9.59574C14.0625 9.58094 13.7604 9.64896 13.4922 9.79253L25.4732 21.7725L29.4212 17.8255C26.6332 16.2665 22.1572 13.7645 15.2172 9.87653Z" fill="#29CC5E"/>
<path d="M25.4722 21.4121L13.4922 33.3941C13.7599 33.5388 14.062 33.6074 14.3659 33.5926C14.6698 33.5778 14.9639 33.4801 15.2162 33.3101C21.9472 29.5411 26.3712 27.0671 29.1922 25.4941L29.4232 25.3641L25.4732 21.4141L25.4722 21.4121Z" fill="#D93F21"/>
<path d="M34.3979 21.5943C34.3994 21.2948 34.3204 21.0004 34.1691 20.742C34.0178 20.4835 33.7998 20.2705 33.5379 20.1253C33.5379 20.1253 32.4689 19.5293 29.1929 17.6973L25.2969 21.5933L29.1969 25.4933C32.4369 23.6743 33.5369 23.0613 33.5369 23.0613C34.1089 22.7413 34.3969 22.1653 34.3969 21.5933L34.3979 21.5943Z" fill="#FFD500"/>
<path d="M33.5379 23.0608C34.1089 22.7408 34.3979 22.1638 34.3979 21.5928H25.2969L29.1969 25.4928C32.4369 23.6738 33.5369 23.0608 33.5369 23.0608H33.5379Z" fill="#FFAA00"/>
</g>
</g>
<defs>
<clipPath id="clip0_3499_681">
<rect width="24" height="24" fill="white" transform="translate(11.5 9.59375)"/>
</clipPath>
</defs>
</svg>
